<mxfile host="65bd71144e">
    <diagram name="Page-1" id="2YBvvXClWsGukQMizWep">
        <mxGraphModel dx="410" dy="318" grid="1" gridSize="10" guides="1" tooltips="1" connect="1" arrows="1" fold="1" page="1" pageScale="1" pageWidth="850" pageHeight="1100" math="0" shadow="0">
            <root>
                <mxCell id="0"/>
                <mxCell id="1" parent="0"/>
                <mxCell id="58" value="show duplicated&amp;nbsp;input error" style="html=1;verticalAlign=bottom;endArrow=open;dashed=1;endSize=8;edgeStyle=elbowEdgeStyle;elbow=vertical;curved=0;rounded=0;" edge="1" parent="1">
                    <mxGeometry x="0.147" relative="1" as="geometry">
                        <mxPoint x="442.48" y="1132" as="sourcePoint"/>
                        <mxPoint x="137.53" y="1132" as="targetPoint"/>
                        <mxPoint as="offset"/>
                        <Array as="points">
                            <mxPoint x="452.48" y="1132"/>
                        </Array>
                    </mxGeometry>
                </mxCell>
                <mxCell id="56" value="response BAD REQUEST&amp;nbsp;" style="html=1;verticalAlign=bottom;endArrow=open;dashed=1;endSize=8;edgeStyle=elbowEdgeStyle;elbow=vertical;curved=0;rounded=0;" edge="1" parent="1">
                    <mxGeometry x="0.0026" relative="1" as="geometry">
                        <mxPoint x="622.0000000000001" y="1130.02" as="sourcePoint"/>
                        <mxPoint x="452" y="1130.49" as="targetPoint"/>
                        <mxPoint as="offset"/>
                    </mxGeometry>
                </mxCell>
                <mxCell id="53" value="return select query result" style="html=1;verticalAlign=bottom;endArrow=open;dashed=1;endSize=8;edgeStyle=elbowEdgeStyle;elbow=vertical;curved=0;rounded=0;" edge="1" parent="1">
                    <mxGeometry x="-0.0051" relative="1" as="geometry">
                        <mxPoint x="826.5" y="1065.0042105263158" as="sourcePoint"/>
                        <mxPoint x="628" y="1065.42" as="targetPoint"/>
                        <mxPoint as="offset"/>
                    </mxGeometry>
                </mxCell>
                <mxCell id="52" value="find email, password for update" style="html=1;verticalAlign=bottom;endArrow=none;edgeStyle=elbowEdgeStyle;elbow=vertical;curved=0;rounded=0;startArrow=block;startFill=1;endFill=0;" edge="1" parent="1">
                    <mxGeometry x="0.0035" relative="1" as="geometry">
                        <mxPoint x="823" y="1040" as="sourcePoint"/>
                        <Array as="points">
                            <mxPoint x="805" y="1040"/>
                            <mxPoint x="965" y="940"/>
                        </Array>
                        <mxPoint x="623.7" y="1040" as="targetPoint"/>
                        <mxPoint as="offset"/>
                    </mxGeometry>
                </mxCell>
                <mxCell id="48" value="" style="html=1;verticalAlign=bottom;endArrow=open;dashed=1;endSize=8;edgeStyle=elbowEdgeStyle;elbow=vertical;curved=0;rounded=0;" edge="1" parent="1">
                    <mxGeometry relative="1" as="geometry">
                        <mxPoint x="267" y="971" as="sourcePoint"/>
                        <mxPoint x="137" y="971" as="targetPoint"/>
                        <Array as="points">
                            <mxPoint x="217" y="971"/>
                        </Array>
                    </mxGeometry>
                </mxCell>
                <mxCell id="46" value="render invalidated value" style="html=1;verticalAlign=bottom;endArrow=open;dashed=1;endSize=8;edgeStyle=elbowEdgeStyle;elbow=vertical;curved=0;rounded=0;" edge="1" parent="1">
                    <mxGeometry x="-0.0002" relative="1" as="geometry">
                        <mxPoint x="445.0000000000001" y="969.5699999999999" as="sourcePoint"/>
                        <mxPoint x="275" y="970.04" as="targetPoint"/>
                        <mxPoint as="offset"/>
                    </mxGeometry>
                </mxCell>
                <mxCell id="41" value="submit updateUserinfo form" style="html=1;verticalAlign=bottom;startArrow=oval;endArrow=block;startSize=8;edgeStyle=elbowEdgeStyle;elbow=vertical;curved=0;rounded=0;" edge="1" parent="1">
                    <mxGeometry x="0.0303" relative="1" as="geometry">
                        <mxPoint x="272" y="909.1700000000001" as="sourcePoint"/>
                        <mxPoint x="442" y="909.84" as="targetPoint"/>
                        <Array as="points"/>
                        <mxPoint as="offset"/>
                    </mxGeometry>
                </mxCell>
                <mxCell id="38" value="write down &lt;br&gt;updateUserinfo form" style="html=1;verticalAlign=bottom;startArrow=oval;endArrow=block;startSize=8;edgeStyle=elbowEdgeStyle;elbow=vertical;curved=0;rounded=0;" edge="1" parent="1">
                    <mxGeometry x="0.0303" relative="1" as="geometry">
                        <mxPoint x="132" y="910.0600000000001" as="sourcePoint"/>
                        <mxPoint x="266" y="910.06" as="targetPoint"/>
                        <Array as="points"/>
                        <mxPoint as="offset"/>
                    </mxGeometry>
                </mxCell>
                <mxCell id="30" value="return select query result" style="html=1;verticalAlign=bottom;endArrow=open;dashed=1;endSize=8;edgeStyle=elbowEdgeStyle;elbow=vertical;curved=0;rounded=0;" edge="1" parent="1">
                    <mxGeometry x="-0.0051" relative="1" as="geometry">
                        <mxPoint x="828.5" y="853.0542105263158" as="sourcePoint"/>
                        <mxPoint x="630" y="853.47" as="targetPoint"/>
                        <mxPoint as="offset"/>
                    </mxGeometry>
                </mxCell>
                <mxCell id="29" value="find name" style="html=1;verticalAlign=bottom;endArrow=none;edgeStyle=elbowEdgeStyle;elbow=vertical;curved=0;rounded=0;startArrow=block;startFill=1;endFill=0;" edge="1" parent="1">
                    <mxGeometry x="0.0035" relative="1" as="geometry">
                        <mxPoint x="822" y="830" as="sourcePoint"/>
                        <Array as="points">
                            <mxPoint x="804" y="830"/>
                            <mxPoint x="964" y="730"/>
                        </Array>
                        <mxPoint x="622.7" y="830" as="targetPoint"/>
                        <mxPoint as="offset"/>
                    </mxGeometry>
                </mxCell>
                <mxCell id="15" value="request updateProfile" style="html=1;verticalAlign=bottom;startArrow=oval;endArrow=block;startSize=8;edgeStyle=elbowEdgeStyle;elbow=horizontal;curved=0;rounded=0;" edge="1" parent="1" target="22">
                    <mxGeometry x="0.0284" relative="1" as="geometry">
                        <mxPoint x="272.0000000000001" y="689.8799999999999" as="sourcePoint"/>
                        <mxPoint x="404" y="689.8799999999999" as="targetPoint"/>
                        <Array as="points"/>
                        <mxPoint as="offset"/>
                    </mxGeometry>
                </mxCell>
                <mxCell id="11" value="access to updateProfile&lt;br&gt;in mypage" style="html=1;verticalAlign=bottom;startArrow=oval;endArrow=block;startSize=8;edgeStyle=elbowEdgeStyle;elbow=horizontal;curved=0;rounded=0;" edge="1" parent="1">
                    <mxGeometry x="0.0303" relative="1" as="geometry">
                        <mxPoint x="132" y="690.12" as="sourcePoint"/>
                        <mxPoint x="264" y="690.12" as="targetPoint"/>
                        <Array as="points"/>
                        <mxPoint as="offset"/>
                    </mxGeometry>
                </mxCell>
                <mxCell id="ti7OjyQPhwodmMIkzD1--58" value="response userData" style="html=1;verticalAlign=bottom;endArrow=open;dashed=1;endSize=8;edgeStyle=elbowEdgeStyle;elbow=vertical;curved=0;rounded=0;" parent="1" edge="1">
                    <mxGeometry x="0.0833" relative="1" as="geometry">
                        <mxPoint x="620" y="587" as="sourcePoint"/>
                        <mxPoint x="453" y="587.3" as="targetPoint"/>
                        <mxPoint as="offset"/>
                    </mxGeometry>
                </mxCell>
                <mxCell id="ti7OjyQPhwodmMIkzD1--30" value="logged in" style="shape=umlFrame;whiteSpace=wrap;html=1;pointerEvents=0;fillColor=#d5e8d4;strokeColor=#82b366;width=90;height=30;" parent="1" vertex="1">
                    <mxGeometry x="20" y="345" width="820" height="295" as="geometry"/>
                </mxCell>
                <mxCell id="ti7OjyQPhwodmMIkzD1--31" value="check username existence" style="html=1;verticalAlign=bottom;endArrow=none;edgeStyle=elbowEdgeStyle;elbow=vertical;curved=0;rounded=0;startArrow=block;startFill=1;endFill=0;" parent="1" edge="1">
                    <mxGeometry x="-0.0273" relative="1" as="geometry">
                        <mxPoint x="823.5" y="418" as="sourcePoint"/>
                        <Array as="points">
                            <mxPoint x="799" y="418"/>
                            <mxPoint x="894" y="316"/>
                        </Array>
                        <mxPoint x="624" y="416" as="targetPoint"/>
                        <mxPoint as="offset"/>
                    </mxGeometry>
                </mxCell>
                <mxCell id="ti7OjyQPhwodmMIkzD1--45" value="response BAD REQUEST" style="html=1;verticalAlign=bottom;endArrow=open;dashed=1;endSize=8;edgeStyle=elbowEdgeStyle;elbow=vertical;curved=0;rounded=0;" parent="1" edge="1">
                    <mxGeometry x="0.1478" relative="1" as="geometry">
                        <mxPoint x="614.95" y="505.5" as="sourcePoint"/>
                        <mxPoint x="451.9954545454545" y="505.5" as="targetPoint"/>
                        <mxPoint as="offset"/>
                        <Array as="points">
                            <mxPoint x="624.95" y="505.5"/>
                        </Array>
                    </mxGeometry>
                </mxCell>
                <mxCell id="ti7OjyQPhwodmMIkzD1--24" value="return select query result" style="html=1;verticalAlign=bottom;endArrow=open;dashed=1;endSize=8;edgeStyle=elbowEdgeStyle;elbow=vertical;curved=0;rounded=0;" parent="1" edge="1">
                    <mxGeometry x="-0.0051" relative="1" as="geometry">
                        <mxPoint x="827.5" y="447.68421052631584" as="sourcePoint"/>
                        <mxPoint x="629" y="448.1" as="targetPoint"/>
                        <mxPoint as="offset"/>
                    </mxGeometry>
                </mxCell>
                <mxCell id="ti7OjyQPhwodmMIkzD1--9" value="request mypage" style="html=1;verticalAlign=bottom;startArrow=oval;endArrow=block;startSize=8;edgeStyle=elbowEdgeStyle;elbow=vertical;curved=0;rounded=0;" parent="1" source="ti7OjyQPhwodmMIkzD1--5" target="aM9ryv3xv72pqoxQDRHE-2" edge="1">
                    <mxGeometry x="0.0116" relative="1" as="geometry">
                        <mxPoint x="278.99999999999994" y="234.0188679245283" as="sourcePoint"/>
                        <mxPoint x="450" y="234" as="targetPoint"/>
                        <Array as="points"/>
                        <mxPoint as="offset"/>
                    </mxGeometry>
                </mxCell>
                <mxCell id="aM9ryv3xv72pqoxQDRHE-3" value="access to mypage" style="html=1;verticalAlign=bottom;startArrow=oval;endArrow=block;startSize=8;edgeStyle=elbowEdgeStyle;elbow=vertical;curved=0;rounded=0;" parent="1" edge="1">
                    <mxGeometry x="0.0208" relative="1" as="geometry">
                        <mxPoint x="131" y="230" as="sourcePoint"/>
                        <mxPoint x="263" y="230" as="targetPoint"/>
                        <Array as="points"/>
                        <mxPoint as="offset"/>
                    </mxGeometry>
                </mxCell>
                <mxCell id="aM9ryv3xv72pqoxQDRHE-1" value="FrontEnd" style="shape=umlLifeline;perimeter=lifelinePerimeter;whiteSpace=wrap;html=1;container=0;dropTarget=0;collapsible=0;recursiveResize=0;outlineConnect=0;portConstraint=eastwest;newEdgeStyle={&quot;edgeStyle&quot;:&quot;elbowEdgeStyle&quot;,&quot;elbow&quot;:&quot;vertical&quot;,&quot;curved&quot;:0,&quot;rounded&quot;:0};" parent="1" vertex="1">
                    <mxGeometry x="397" y="160" width="100" height="1120" as="geometry"/>
                </mxCell>
                <mxCell id="aM9ryv3xv72pqoxQDRHE-2" value="" style="html=1;points=[];perimeter=orthogonalPerimeter;outlineConnect=0;targetShapes=umlLifeline;portConstraint=eastwest;newEdgeStyle={&quot;edgeStyle&quot;:&quot;elbowEdgeStyle&quot;,&quot;elbow&quot;:&quot;vertical&quot;,&quot;curved&quot;:0,&quot;rounded&quot;:0};" parent="aM9ryv3xv72pqoxQDRHE-1" vertex="1">
                    <mxGeometry x="45" y="60" width="10" height="40" as="geometry"/>
                </mxCell>
                <mxCell id="ti7OjyQPhwodmMIkzD1--10" value="" style="html=1;points=[];perimeter=orthogonalPerimeter;outlineConnect=0;targetShapes=umlLifeline;portConstraint=eastwest;newEdgeStyle={&quot;edgeStyle&quot;:&quot;elbowEdgeStyle&quot;,&quot;elbow&quot;:&quot;vertical&quot;,&quot;curved&quot;:0,&quot;rounded&quot;:0};" parent="aM9ryv3xv72pqoxQDRHE-1" vertex="1">
                    <mxGeometry x="45" y="190" width="10" height="84" as="geometry"/>
                </mxCell>
                <mxCell id="ti7OjyQPhwodmMIkzD1--11" value="check login states" style="html=1;align=left;spacingLeft=2;endArrow=block;rounded=0;edgeStyle=orthogonalEdgeStyle;curved=0;rounded=0;" parent="aM9ryv3xv72pqoxQDRHE-1" edge="1">
                    <mxGeometry x="-0.5878" relative="1" as="geometry">
                        <mxPoint x="54.999999999999886" y="86.0344827586207" as="sourcePoint"/>
                        <Array as="points">
                            <mxPoint x="83" y="86"/>
                            <mxPoint x="83" y="196"/>
                        </Array>
                        <mxPoint x="54.999999999999886" y="196.0344827586207" as="targetPoint"/>
                        <mxPoint as="offset"/>
                    </mxGeometry>
                </mxCell>
                <mxCell id="ti7OjyQPhwodmMIkzD1--18" value="" style="html=1;points=[];perimeter=orthogonalPerimeter;outlineConnect=0;targetShapes=umlLifeline;portConstraint=eastwest;newEdgeStyle={&quot;edgeStyle&quot;:&quot;elbowEdgeStyle&quot;,&quot;elbow&quot;:&quot;vertical&quot;,&quot;curved&quot;:0,&quot;rounded&quot;:0};" parent="aM9ryv3xv72pqoxQDRHE-1" vertex="1">
                    <mxGeometry x="45" y="130" width="10" height="30" as="geometry"/>
                </mxCell>
                <mxCell id="aM9ryv3xv72pqoxQDRHE-5" value="BackEnd" style="shape=umlLifeline;perimeter=lifelinePerimeter;whiteSpace=wrap;html=1;container=0;dropTarget=0;collapsible=0;recursiveResize=0;outlineConnect=0;portConstraint=eastwest;newEdgeStyle={&quot;edgeStyle&quot;:&quot;elbowEdgeStyle&quot;,&quot;elbow&quot;:&quot;vertical&quot;,&quot;curved&quot;:0,&quot;rounded&quot;:0};" parent="1" vertex="1">
                    <mxGeometry x="573" y="160" width="100" height="1090" as="geometry"/>
                </mxCell>
                <mxCell id="aM9ryv3xv72pqoxQDRHE-6" value="" style="html=1;points=[];perimeter=orthogonalPerimeter;outlineConnect=0;targetShapes=umlLifeline;portConstraint=eastwest;newEdgeStyle={&quot;edgeStyle&quot;:&quot;elbowEdgeStyle&quot;,&quot;elbow&quot;:&quot;vertical&quot;,&quot;curved&quot;:0,&quot;rounded&quot;:0};" parent="aM9ryv3xv72pqoxQDRHE-5" vertex="1">
                    <mxGeometry x="45" y="239" width="10" height="76" as="geometry"/>
                </mxCell>
                <mxCell id="ti7OjyQPhwodmMIkzD1--40" value="" style="html=1;points=[];perimeter=orthogonalPerimeter;outlineConnect=0;targetShapes=umlLifeline;portConstraint=eastwest;newEdgeStyle={&quot;edgeStyle&quot;:&quot;elbowEdgeStyle&quot;,&quot;elbow&quot;:&quot;vertical&quot;,&quot;curved&quot;:0,&quot;rounded&quot;:0};" parent="aM9ryv3xv72pqoxQDRHE-5" vertex="1">
                    <mxGeometry x="45" y="329" width="10" height="40" as="geometry"/>
                </mxCell>
                <mxCell id="aM9ryv3xv72pqoxQDRHE-9" value="request getUserInfo api" style="html=1;verticalAlign=bottom;endArrow=none;edgeStyle=elbowEdgeStyle;elbow=vertical;curved=0;rounded=0;startArrow=block;startFill=1;endFill=0;" parent="1" edge="1">
                    <mxGeometry relative="1" as="geometry">
                        <mxPoint x="618" y="409" as="sourcePoint"/>
                        <Array as="points">
                            <mxPoint x="600" y="409"/>
                            <mxPoint x="760" y="309"/>
                        </Array>
                        <mxPoint x="451.9999999999999" y="409" as="targetPoint"/>
                    </mxGeometry>
                </mxCell>
                <mxCell id="ti7OjyQPhwodmMIkzD1--1" value="" style="shape=umlLifeline;perimeter=lifelinePerimeter;whiteSpace=wrap;html=1;container=1;dropTarget=0;collapsible=0;recursiveResize=0;outlineConnect=0;portConstraint=eastwest;newEdgeStyle={&quot;edgeStyle&quot;:&quot;elbowEdgeStyle&quot;,&quot;elbow&quot;:&quot;vertical&quot;,&quot;curved&quot;:0,&quot;rounded&quot;:0};participant=umlActor;" parent="1" vertex="1">
                    <mxGeometry x="121" y="160" width="20" height="1120" as="geometry"/>
                </mxCell>
                <mxCell id="ti7OjyQPhwodmMIkzD1--8" value="" style="html=1;points=[];perimeter=orthogonalPerimeter;outlineConnect=0;targetShapes=umlLifeline;portConstraint=eastwest;newEdgeStyle={&quot;edgeStyle&quot;:&quot;elbowEdgeStyle&quot;,&quot;elbow&quot;:&quot;vertical&quot;,&quot;curved&quot;:0,&quot;rounded&quot;:0};" parent="ti7OjyQPhwodmMIkzD1--1" vertex="1">
                    <mxGeometry x="5" y="60" width="10" height="1020" as="geometry"/>
                </mxCell>
                <mxCell id="ti7OjyQPhwodmMIkzD1--3" value="&lt;font style=&quot;font-size: 22px;&quot;&gt;내 정보 조회 / 수정&lt;br&gt;get/update UserInfo API&lt;br&gt;&lt;/font&gt;" style="text;html=1;strokeColor=none;fillColor=none;align=center;verticalAlign=middle;whiteSpace=wrap;rounded=0;" parent="1" vertex="1">
                    <mxGeometry x="11" y="35" width="169" height="75" as="geometry"/>
                </mxCell>
                <mxCell id="ti7OjyQPhwodmMIkzD1--4" value="&lt;p style=&quot;margin:0px;margin-top:4px;text-align:center;text-decoration:underline;&quot;&gt;&lt;b&gt;user:string&lt;/b&gt;&lt;/p&gt;&lt;hr&gt;&lt;p style=&quot;margin:0px;margin-left:8px;&quot;&gt;name = admin&lt;br&gt;username = admin1&lt;br&gt;&lt;/p&gt;&lt;p style=&quot;margin:0px;margin-left:8px;&quot;&gt;email = admin@admin.com&lt;/p&gt;" style="verticalAlign=top;align=left;overflow=fill;fontSize=12;fontFamily=Helvetica;html=1;whiteSpace=wrap;" parent="1" vertex="1">
                    <mxGeometry x="200" y="20" width="160" height="100" as="geometry"/>
                </mxCell>
                <mxCell id="ti7OjyQPhwodmMIkzD1--5" value="WebBrowser" style="shape=umlLifeline;perimeter=lifelinePerimeter;whiteSpace=wrap;html=1;container=1;dropTarget=0;collapsible=0;recursiveResize=0;outlineConnect=0;portConstraint=eastwest;newEdgeStyle={&quot;edgeStyle&quot;:&quot;elbowEdgeStyle&quot;,&quot;elbow&quot;:&quot;vertical&quot;,&quot;curved&quot;:0,&quot;rounded&quot;:0};" parent="1" vertex="1">
                    <mxGeometry x="221" y="160" width="100" height="1140" as="geometry"/>
                </mxCell>
                <mxCell id="ti7OjyQPhwodmMIkzD1--7" value="" style="html=1;points=[];perimeter=orthogonalPerimeter;outlineConnect=0;targetShapes=umlLifeline;portConstraint=eastwest;newEdgeStyle={&quot;edgeStyle&quot;:&quot;elbowEdgeStyle&quot;,&quot;elbow&quot;:&quot;vertical&quot;,&quot;curved&quot;:0,&quot;rounded&quot;:0};" parent="ti7OjyQPhwodmMIkzD1--5" vertex="1">
                    <mxGeometry x="45" y="60" width="10" height="30" as="geometry"/>
                </mxCell>
                <mxCell id="ti7OjyQPhwodmMIkzD1--6" value="DB" style="shape=umlLifeline;perimeter=lifelinePerimeter;whiteSpace=wrap;html=1;container=1;dropTarget=0;collapsible=0;recursiveResize=0;outlineConnect=0;portConstraint=eastwest;newEdgeStyle={&quot;edgeStyle&quot;:&quot;elbowEdgeStyle&quot;,&quot;elbow&quot;:&quot;vertical&quot;,&quot;curved&quot;:0,&quot;rounded&quot;:0};" parent="1" vertex="1">
                    <mxGeometry x="778" y="160" width="100" height="1090" as="geometry"/>
                </mxCell>
                <mxCell id="ti7OjyQPhwodmMIkzD1--38" value="" style="html=1;points=[];perimeter=orthogonalPerimeter;outlineConnect=0;targetShapes=umlLifeline;portConstraint=eastwest;newEdgeStyle={&quot;edgeStyle&quot;:&quot;elbowEdgeStyle&quot;,&quot;elbow&quot;:&quot;vertical&quot;,&quot;curved&quot;:0,&quot;rounded&quot;:0};" parent="ti7OjyQPhwodmMIkzD1--6" vertex="1">
                    <mxGeometry x="45" y="239" width="10" height="70" as="geometry"/>
                </mxCell>
                <mxCell id="ti7OjyQPhwodmMIkzD1--16" value="" style="endArrow=block;endFill=1;html=1;edgeStyle=orthogonalEdgeStyle;align=left;verticalAlign=top;rounded=0;" parent="1" edge="1">
                    <mxGeometry x="-1" relative="1" as="geometry">
                        <mxPoint x="460" y="295" as="sourcePoint"/>
                        <mxPoint x="452" y="295.0057803468208" as="targetPoint"/>
                        <Array as="points">
                            <mxPoint x="480" y="295"/>
                        </Array>
                    </mxGeometry>
                </mxCell>
                <mxCell id="ti7OjyQPhwodmMIkzD1--27" value="not logged in" style="shape=umlFrame;whiteSpace=wrap;html=1;pointerEvents=0;fillColor=#f8cecc;strokeColor=#b85450;width=90;height=26;" parent="1" vertex="1">
                    <mxGeometry x="20" y="270" width="480" height="56" as="geometry"/>
                </mxCell>
                <mxCell id="ti7OjyQPhwodmMIkzD1--29" value="" style="html=1;verticalAlign=bottom;endArrow=open;dashed=1;endSize=8;edgeStyle=elbowEdgeStyle;elbow=vertical;curved=0;rounded=0;" parent="1" source="ti7OjyQPhwodmMIkzD1--18" target="ti7OjyQPhwodmMIkzD1--8" edge="1">
                    <mxGeometry relative="1" as="geometry">
                        <mxPoint x="505.0000000000001" y="309.16666666666674" as="sourcePoint"/>
                        <mxPoint x="276" y="300" as="targetPoint"/>
                        <Array as="points">
                            <mxPoint x="370" y="300"/>
                        </Array>
                    </mxGeometry>
                </mxCell>
                <mxCell id="ti7OjyQPhwodmMIkzD1--34" value="&lt;font style=&quot;font-size: 11px;&quot;&gt;redirect to login page&lt;br&gt;&lt;/font&gt;" style="text;html=1;align=center;verticalAlign=middle;resizable=0;points=[];autosize=1;strokeColor=none;fillColor=none;" parent="1" vertex="1">
                    <mxGeometry x="230" y="274" width="130" height="30" as="geometry"/>
                </mxCell>
                <mxCell id="ti7OjyQPhwodmMIkzD1--42" value="check username" style="html=1;align=left;spacingLeft=2;endArrow=block;rounded=0;edgeStyle=orthogonalEdgeStyle;curved=0;rounded=0;" parent="1" edge="1">
                    <mxGeometry x="0.0556" y="4" relative="1" as="geometry">
                        <mxPoint x="628" y="454" as="sourcePoint"/>
                        <Array as="points">
                            <mxPoint x="656" y="454"/>
                            <mxPoint x="656" y="504"/>
                        </Array>
                        <mxPoint x="628" y="504" as="targetPoint"/>
                        <mxPoint as="offset"/>
                    </mxGeometry>
                </mxCell>
                <mxCell id="ti7OjyQPhwodmMIkzD1--46" value="" style="html=1;points=[];perimeter=orthogonalPerimeter;outlineConnect=0;targetShapes=umlLifeline;portConstraint=eastwest;newEdgeStyle={&quot;edgeStyle&quot;:&quot;elbowEdgeStyle&quot;,&quot;elbow&quot;:&quot;vertical&quot;,&quot;curved&quot;:0,&quot;rounded&quot;:0};" parent="1" vertex="1">
                    <mxGeometry x="442" y="489" width="10" height="30" as="geometry"/>
                </mxCell>
                <mxCell id="ti7OjyQPhwodmMIkzD1--54" value="" style="html=1;points=[];perimeter=orthogonalPerimeter;outlineConnect=0;targetShapes=umlLifeline;portConstraint=eastwest;newEdgeStyle={&quot;edgeStyle&quot;:&quot;elbowEdgeStyle&quot;,&quot;elbow&quot;:&quot;vertical&quot;,&quot;curved&quot;:0,&quot;rounded&quot;:0};" parent="1" vertex="1">
                    <mxGeometry x="618" y="550" width="10" height="60" as="geometry"/>
                </mxCell>
                <mxCell id="ti7OjyQPhwodmMIkzD1--59" value="show userData" style="html=1;verticalAlign=bottom;endArrow=open;dashed=1;endSize=8;edgeStyle=elbowEdgeStyle;elbow=vertical;curved=0;rounded=0;" parent="1" edge="1">
                    <mxGeometry x="-0.0769" relative="1" as="geometry">
                        <mxPoint x="270" y="588" as="sourcePoint"/>
                        <mxPoint x="137" y="588.02" as="targetPoint"/>
                        <mxPoint as="offset"/>
                        <Array as="points"/>
                    </mxGeometry>
                </mxCell>
                <mxCell id="ti7OjyQPhwodmMIkzD1--67" value="" style="html=1;points=[];perimeter=orthogonalPerimeter;outlineConnect=0;targetShapes=umlLifeline;portConstraint=eastwest;newEdgeStyle={&quot;edgeStyle&quot;:&quot;elbowEdgeStyle&quot;,&quot;elbow&quot;:&quot;vertical&quot;,&quot;curved&quot;:0,&quot;rounded&quot;:0};" parent="1" vertex="1">
                    <mxGeometry x="442" y="571" width="10" height="39" as="geometry"/>
                </mxCell>
                <mxCell id="2" value="redirect to main page" style="html=1;verticalAlign=bottom;endArrow=open;dashed=1;endSize=8;edgeStyle=elbowEdgeStyle;elbow=vertical;curved=0;rounded=0;" edge="1" parent="1">
                    <mxGeometry x="-0.0769" relative="1" as="geometry">
                        <mxPoint x="439.5" y="505.5" as="sourcePoint"/>
                        <mxPoint x="136.5" y="505.5" as="targetPoint"/>
                        <mxPoint as="offset"/>
                        <Array as="points">
                            <mxPoint x="349.5" y="505.5"/>
                        </Array>
                    </mxGeometry>
                </mxCell>
                <mxCell id="6" value="내 정보 조희 하는 도중 회원 탈퇴할 경우&lt;br&gt;username을 찾을 수 없으므로&lt;br&gt;username 없을 시 오류 반환" style="text;html=1;align=center;verticalAlign=middle;resizable=0;points=[];autosize=1;strokeColor=none;fillColor=none;fontSize=12;fontFamily=Helvetica;fontColor=default;" vertex="1" parent="1">
                    <mxGeometry x="620" y="345" width="210" height="60" as="geometry"/>
                </mxCell>
                <mxCell id="7" value="can't find username" style="shape=umlFrame;whiteSpace=wrap;html=1;pointerEvents=0;fillColor=#f8cecc;strokeColor=#b85450;width=93;height=40;" vertex="1" parent="1">
                    <mxGeometry x="29" y="471" width="593" height="56" as="geometry"/>
                </mxCell>
                <mxCell id="9" value="" style="html=1;points=[];perimeter=orthogonalPerimeter;outlineConnect=0;targetShapes=umlLifeline;portConstraint=eastwest;newEdgeStyle={&quot;edgeStyle&quot;:&quot;elbowEdgeStyle&quot;,&quot;elbow&quot;:&quot;vertical&quot;,&quot;curved&quot;:0,&quot;rounded&quot;:0};" vertex="1" parent="1">
                    <mxGeometry x="266" y="571" width="10" height="39" as="geometry"/>
                </mxCell>
                <mxCell id="10" value="render userData" style="html=1;verticalAlign=bottom;endArrow=open;dashed=1;endSize=8;edgeStyle=elbowEdgeStyle;elbow=vertical;curved=0;rounded=0;" edge="1" parent="1" source="ti7OjyQPhwodmMIkzD1--67">
                    <mxGeometry x="-0.0799" relative="1" as="geometry">
                        <mxPoint x="409" y="587.34" as="sourcePoint"/>
                        <mxPoint x="276" y="587.36" as="targetPoint"/>
                        <mxPoint as="offset"/>
                        <Array as="points"/>
                    </mxGeometry>
                </mxCell>
                <mxCell id="12" value="" style="html=1;points=[];perimeter=orthogonalPerimeter;outlineConnect=0;targetShapes=umlLifeline;portConstraint=eastwest;newEdgeStyle={&quot;edgeStyle&quot;:&quot;elbowEdgeStyle&quot;,&quot;elbow&quot;:&quot;vertical&quot;,&quot;curved&quot;:0,&quot;rounded&quot;:0};" vertex="1" parent="1">
                    <mxGeometry x="266" y="670" width="10" height="39" as="geometry"/>
                </mxCell>
                <mxCell id="13" value="getUserInfo" style="text;html=1;align=center;verticalAlign=middle;resizable=0;points=[];autosize=1;strokeColor=none;fillColor=none;fontSize=12;fontFamily=Helvetica;fontColor=default;" vertex="1" parent="1">
                    <mxGeometry x="36" y="215" width="90" height="30" as="geometry"/>
                </mxCell>
                <mxCell id="14" value="updateUserInfo" style="text;html=1;align=center;verticalAlign=middle;resizable=0;points=[];autosize=1;strokeColor=none;fillColor=none;fontSize=12;fontFamily=Helvetica;fontColor=default;" vertex="1" parent="1">
                    <mxGeometry x="25" y="674" width="110" height="30" as="geometry"/>
                </mxCell>
                <mxCell id="19" value="" style="html=1;verticalAlign=bottom;endArrow=open;dashed=1;endSize=8;edgeStyle=elbowEdgeStyle;elbow=vertical;curved=0;rounded=0;" edge="1" parent="1">
                    <mxGeometry relative="1" as="geometry">
                        <mxPoint x="441" y="746" as="sourcePoint"/>
                        <mxPoint x="135" y="746" as="targetPoint"/>
                        <Array as="points">
                            <mxPoint x="369" y="746"/>
                        </Array>
                    </mxGeometry>
                </mxCell>
                <mxCell id="20" value="&lt;font style=&quot;font-size: 11px;&quot;&gt;redirect to login page&lt;br&gt;&lt;/font&gt;" style="text;html=1;align=center;verticalAlign=middle;resizable=0;points=[];autosize=1;strokeColor=none;fillColor=none;" vertex="1" parent="1">
                    <mxGeometry x="229" y="720" width="130" height="30" as="geometry"/>
                </mxCell>
                <mxCell id="21" value="check login states" style="html=1;align=left;spacingLeft=2;endArrow=block;rounded=0;edgeStyle=orthogonalEdgeStyle;curved=0;rounded=0;" edge="1" parent="1" target="25">
                    <mxGeometry x="-0.5878" relative="1" as="geometry">
                        <mxPoint x="453" y="692.0144827586207" as="sourcePoint"/>
                        <Array as="points">
                            <mxPoint x="481" y="692"/>
                            <mxPoint x="481" y="790"/>
                        </Array>
                        <mxPoint x="453" y="802.0144827586207" as="targetPoint"/>
                        <mxPoint as="offset"/>
                    </mxGeometry>
                </mxCell>
                <mxCell id="22" value="" style="html=1;points=[];perimeter=orthogonalPerimeter;outlineConnect=0;targetShapes=umlLifeline;portConstraint=eastwest;newEdgeStyle={&quot;edgeStyle&quot;:&quot;elbowEdgeStyle&quot;,&quot;elbow&quot;:&quot;vertical&quot;,&quot;curved&quot;:0,&quot;rounded&quot;:0};" vertex="1" parent="1">
                    <mxGeometry x="442" y="670" width="10" height="40" as="geometry"/>
                </mxCell>
                <mxCell id="23" value="" style="html=1;points=[];perimeter=orthogonalPerimeter;outlineConnect=0;targetShapes=umlLifeline;portConstraint=eastwest;newEdgeStyle={&quot;edgeStyle&quot;:&quot;elbowEdgeStyle&quot;,&quot;elbow&quot;:&quot;vertical&quot;,&quot;curved&quot;:0,&quot;rounded&quot;:0};" vertex="1" parent="1">
                    <mxGeometry x="442" y="732" width="10" height="30" as="geometry"/>
                </mxCell>
                <mxCell id="24" value="" style="endArrow=block;endFill=1;html=1;edgeStyle=orthogonalEdgeStyle;align=left;verticalAlign=top;rounded=0;" edge="1" parent="1">
                    <mxGeometry x="-1" relative="1" as="geometry">
                        <mxPoint x="460.0000000000002" y="745" as="sourcePoint"/>
                        <mxPoint x="452" y="745.0057803468209" as="targetPoint"/>
                        <Array as="points">
                            <mxPoint x="480" y="745"/>
                        </Array>
                    </mxGeometry>
                </mxCell>
                <mxCell id="25" value="" style="html=1;points=[];perimeter=orthogonalPerimeter;outlineConnect=0;targetShapes=umlLifeline;portConstraint=eastwest;newEdgeStyle={&quot;edgeStyle&quot;:&quot;elbowEdgeStyle&quot;,&quot;elbow&quot;:&quot;vertical&quot;,&quot;curved&quot;:0,&quot;rounded&quot;:0};" vertex="1" parent="1">
                    <mxGeometry x="442" y="783" width="10" height="90" as="geometry"/>
                </mxCell>
                <mxCell id="26" value="request getUserInfo(name)&lt;br&gt;(ReadOnly)" style="html=1;verticalAlign=bottom;endArrow=none;edgeStyle=elbowEdgeStyle;elbow=vertical;curved=0;rounded=0;startArrow=block;startFill=1;endFill=0;" edge="1" parent="1">
                    <mxGeometry x="0.004" relative="1" as="geometry">
                        <mxPoint x="618" y="828.23" as="sourcePoint"/>
                        <Array as="points">
                            <mxPoint x="600" y="828.23"/>
                            <mxPoint x="760" y="728.23"/>
                        </Array>
                        <mxPoint x="452" y="828.23" as="targetPoint"/>
                        <mxPoint as="offset"/>
                    </mxGeometry>
                </mxCell>
                <mxCell id="27" value="" style="html=1;points=[];perimeter=orthogonalPerimeter;outlineConnect=0;targetShapes=umlLifeline;portConstraint=eastwest;newEdgeStyle={&quot;edgeStyle&quot;:&quot;elbowEdgeStyle&quot;,&quot;elbow&quot;:&quot;vertical&quot;,&quot;curved&quot;:0,&quot;rounded&quot;:0};" vertex="1" parent="1">
                    <mxGeometry x="620" y="813" width="10" height="60" as="geometry"/>
                </mxCell>
                <mxCell id="28" value="" style="html=1;points=[];perimeter=orthogonalPerimeter;outlineConnect=0;targetShapes=umlLifeline;portConstraint=eastwest;newEdgeStyle={&quot;edgeStyle&quot;:&quot;elbowEdgeStyle&quot;,&quot;elbow&quot;:&quot;vertical&quot;,&quot;curved&quot;:0,&quot;rounded&quot;:0};" vertex="1" parent="1">
                    <mxGeometry x="823" y="813" width="10" height="60" as="geometry"/>
                </mxCell>
                <mxCell id="31" value="response name" style="html=1;verticalAlign=bottom;endArrow=open;dashed=1;endSize=8;edgeStyle=elbowEdgeStyle;elbow=vertical;curved=0;rounded=0;" edge="1" parent="1">
                    <mxGeometry x="-0.0051" relative="1" as="geometry">
                        <mxPoint x="622" y="854" as="sourcePoint"/>
                        <mxPoint x="452" y="854.47" as="targetPoint"/>
                        <mxPoint as="offset"/>
                    </mxGeometry>
                </mxCell>
                <mxCell id="33" value="request updateUserInfo API" style="html=1;verticalAlign=bottom;endArrow=none;edgeStyle=elbowEdgeStyle;elbow=vertical;curved=0;rounded=0;startArrow=block;startFill=1;endFill=0;" edge="1" parent="1">
                    <mxGeometry x="0.004" relative="1" as="geometry">
                        <mxPoint x="618" y="1040" as="sourcePoint"/>
                        <Array as="points">
                            <mxPoint x="600" y="1040"/>
                            <mxPoint x="760" y="940"/>
                        </Array>
                        <mxPoint x="452" y="1040" as="targetPoint"/>
                        <mxPoint as="offset"/>
                    </mxGeometry>
                </mxCell>
                <mxCell id="34" value="" style="html=1;points=[];perimeter=orthogonalPerimeter;outlineConnect=0;targetShapes=umlLifeline;portConstraint=eastwest;newEdgeStyle={&quot;edgeStyle&quot;:&quot;elbowEdgeStyle&quot;,&quot;elbow&quot;:&quot;vertical&quot;,&quot;curved&quot;:0,&quot;rounded&quot;:0};" vertex="1" parent="1">
                    <mxGeometry x="618" y="1020" width="10" height="70" as="geometry"/>
                </mxCell>
                <mxCell id="35" value="render name,&lt;br&gt;editable UserInfo&lt;br&gt;(email, password)" style="html=1;verticalAlign=bottom;endArrow=open;dashed=1;endSize=8;edgeStyle=elbowEdgeStyle;elbow=vertical;curved=0;rounded=0;" edge="1" parent="1">
                    <mxGeometry x="-0.0051" relative="1" as="geometry">
                        <mxPoint x="447" y="856" as="sourcePoint"/>
                        <mxPoint x="277" y="856.47" as="targetPoint"/>
                        <mxPoint as="offset"/>
                    </mxGeometry>
                </mxCell>
                <mxCell id="36" value="show name,&lt;br&gt;editable UserInfo&lt;br&gt;(email, password)" style="html=1;verticalAlign=bottom;endArrow=open;dashed=1;endSize=8;edgeStyle=elbowEdgeStyle;elbow=vertical;curved=0;rounded=0;" edge="1" parent="1">
                    <mxGeometry x="0.1407" relative="1" as="geometry">
                        <mxPoint x="282" y="856" as="sourcePoint"/>
                        <mxPoint x="138" y="856.47" as="targetPoint"/>
                        <mxPoint as="offset"/>
                    </mxGeometry>
                </mxCell>
                <mxCell id="37" value="" style="html=1;points=[];perimeter=orthogonalPerimeter;outlineConnect=0;targetShapes=umlLifeline;portConstraint=eastwest;newEdgeStyle={&quot;edgeStyle&quot;:&quot;elbowEdgeStyle&quot;,&quot;elbow&quot;:&quot;vertical&quot;,&quot;curved&quot;:0,&quot;rounded&quot;:0};" vertex="1" parent="1">
                    <mxGeometry x="266" y="834" width="10" height="39" as="geometry"/>
                </mxCell>
                <mxCell id="39" value="" style="html=1;points=[];perimeter=orthogonalPerimeter;outlineConnect=0;targetShapes=umlLifeline;portConstraint=eastwest;newEdgeStyle={&quot;edgeStyle&quot;:&quot;elbowEdgeStyle&quot;,&quot;elbow&quot;:&quot;vertical&quot;,&quot;curved&quot;:0,&quot;rounded&quot;:0};" vertex="1" parent="1">
                    <mxGeometry x="266" y="890" width="10" height="39" as="geometry"/>
                </mxCell>
                <mxCell id="42" value="" style="html=1;points=[];perimeter=orthogonalPerimeter;outlineConnect=0;targetShapes=umlLifeline;portConstraint=eastwest;newEdgeStyle={&quot;edgeStyle&quot;:&quot;elbowEdgeStyle&quot;,&quot;elbow&quot;:&quot;vertical&quot;,&quot;curved&quot;:0,&quot;rounded&quot;:0};" vertex="1" parent="1">
                    <mxGeometry x="442" y="900" width="10" height="30" as="geometry"/>
                </mxCell>
                <mxCell id="43" value="validate submitted values" style="html=1;align=left;spacingLeft=2;endArrow=block;rounded=0;edgeStyle=orthogonalEdgeStyle;curved=0;rounded=0;" edge="1" parent="1" target="50">
                    <mxGeometry x="-0.2571" relative="1" as="geometry">
                        <mxPoint x="451.9999999999999" y="920.0844827586207" as="sourcePoint"/>
                        <Array as="points">
                            <mxPoint x="480" y="920"/>
                            <mxPoint x="480" y="1020"/>
                        </Array>
                        <mxPoint x="451.9999999999999" y="1030.0844827586207" as="targetPoint"/>
                        <mxPoint as="offset"/>
                    </mxGeometry>
                </mxCell>
                <mxCell id="44" value="" style="endArrow=block;endFill=1;html=1;edgeStyle=orthogonalEdgeStyle;align=left;verticalAlign=top;rounded=0;" edge="1" parent="1">
                    <mxGeometry x="-1" relative="1" as="geometry">
                        <mxPoint x="460.0000000000002" y="970" as="sourcePoint"/>
                        <mxPoint x="452" y="970.0057803468209" as="targetPoint"/>
                        <Array as="points">
                            <mxPoint x="480" y="970"/>
                        </Array>
                    </mxGeometry>
                </mxCell>
                <mxCell id="45" value="" style="html=1;points=[];perimeter=orthogonalPerimeter;outlineConnect=0;targetShapes=umlLifeline;portConstraint=eastwest;newEdgeStyle={&quot;edgeStyle&quot;:&quot;elbowEdgeStyle&quot;,&quot;elbow&quot;:&quot;vertical&quot;,&quot;curved&quot;:0,&quot;rounded&quot;:0};" vertex="1" parent="1">
                    <mxGeometry x="442" y="955" width="10" height="30" as="geometry"/>
                </mxCell>
                <mxCell id="47" value="" style="html=1;points=[];perimeter=orthogonalPerimeter;outlineConnect=0;targetShapes=umlLifeline;portConstraint=eastwest;newEdgeStyle={&quot;edgeStyle&quot;:&quot;elbowEdgeStyle&quot;,&quot;elbow&quot;:&quot;vertical&quot;,&quot;curved&quot;:0,&quot;rounded&quot;:0};" vertex="1" parent="1">
                    <mxGeometry x="266" y="955" width="10" height="29" as="geometry"/>
                </mxCell>
                <mxCell id="49" value="&lt;font style=&quot;font-size: 11px;&quot;&gt;show which is &lt;br&gt;invalidated value&lt;/font&gt;" style="text;html=1;align=center;verticalAlign=middle;resizable=0;points=[];autosize=1;strokeColor=none;fillColor=none;" vertex="1" parent="1">
                    <mxGeometry x="142" y="936" width="110" height="40" as="geometry"/>
                </mxCell>
                <mxCell id="50" value="" style="html=1;points=[];perimeter=orthogonalPerimeter;outlineConnect=0;targetShapes=umlLifeline;portConstraint=eastwest;newEdgeStyle={&quot;edgeStyle&quot;:&quot;elbowEdgeStyle&quot;,&quot;elbow&quot;:&quot;vertical&quot;,&quot;curved&quot;:0,&quot;rounded&quot;:0};" vertex="1" parent="1">
                    <mxGeometry x="442" y="1010" width="10" height="50" as="geometry"/>
                </mxCell>
                <mxCell id="51" value="" style="html=1;points=[];perimeter=orthogonalPerimeter;outlineConnect=0;targetShapes=umlLifeline;portConstraint=eastwest;newEdgeStyle={&quot;edgeStyle&quot;:&quot;elbowEdgeStyle&quot;,&quot;elbow&quot;:&quot;vertical&quot;,&quot;curved&quot;:0,&quot;rounded&quot;:0};" vertex="1" parent="1">
                    <mxGeometry x="823" y="1018" width="10" height="60" as="geometry"/>
                </mxCell>
                <mxCell id="54" value="check duplication" style="html=1;align=left;spacingLeft=2;endArrow=block;rounded=0;edgeStyle=orthogonalEdgeStyle;curved=0;rounded=0;" edge="1" parent="1" target="55">
                    <mxGeometry x="-0.0741" relative="1" as="geometry">
                        <mxPoint x="628" y="1078.0044827586207" as="sourcePoint"/>
                        <Array as="points">
                            <mxPoint x="656" y="1078"/>
                            <mxPoint x="656" y="1130"/>
                        </Array>
                        <mxPoint x="628" y="1177.92" as="targetPoint"/>
                        <mxPoint as="offset"/>
                    </mxGeometry>
                </mxCell>
                <mxCell id="55" value="" style="html=1;points=[];perimeter=orthogonalPerimeter;outlineConnect=0;targetShapes=umlLifeline;portConstraint=eastwest;newEdgeStyle={&quot;edgeStyle&quot;:&quot;elbowEdgeStyle&quot;,&quot;elbow&quot;:&quot;vertical&quot;,&quot;curved&quot;:0,&quot;rounded&quot;:0};" vertex="1" parent="1">
                    <mxGeometry x="618" y="1110" width="10" height="100" as="geometry"/>
                </mxCell>
                <mxCell id="57" value="" style="html=1;points=[];perimeter=orthogonalPerimeter;outlineConnect=0;targetShapes=umlLifeline;portConstraint=eastwest;newEdgeStyle={&quot;edgeStyle&quot;:&quot;elbowEdgeStyle&quot;,&quot;elbow&quot;:&quot;vertical&quot;,&quot;curved&quot;:0,&quot;rounded&quot;:0};" vertex="1" parent="1">
                    <mxGeometry x="442" y="1115" width="10" height="30" as="geometry"/>
                </mxCell>
                <mxCell id="59" value="save userData &lt;br&gt;with hashed Password" style="html=1;verticalAlign=bottom;startArrow=none;endArrow=block;startSize=8;edgeStyle=elbowEdgeStyle;elbow=vertical;curved=0;rounded=0;startFill=0;" edge="1" parent="1">
                    <mxGeometry x="0.0102" relative="1" as="geometry">
                        <mxPoint x="630" y="1150" as="sourcePoint"/>
                        <mxPoint x="820" y="1150" as="targetPoint"/>
                        <Array as="points">
                            <mxPoint x="730" y="1150"/>
                        </Array>
                        <mxPoint as="offset"/>
                    </mxGeometry>
                </mxCell>
                <mxCell id="60" value="" style="html=1;points=[];perimeter=orthogonalPerimeter;outlineConnect=0;targetShapes=umlLifeline;portConstraint=eastwest;newEdgeStyle={&quot;edgeStyle&quot;:&quot;elbowEdgeStyle&quot;,&quot;elbow&quot;:&quot;vertical&quot;,&quot;curved&quot;:0,&quot;rounded&quot;:0};" vertex="1" parent="1">
                    <mxGeometry x="823" y="1120" width="10" height="60" as="geometry"/>
                </mxCell>
                <mxCell id="61" value="response updatedUserData" style="html=1;verticalAlign=bottom;endArrow=open;dashed=1;endSize=8;edgeStyle=elbowEdgeStyle;elbow=vertical;curved=0;rounded=0;" edge="1" parent="1">
                    <mxGeometry x="0.0267" y="-1" relative="1" as="geometry">
                        <mxPoint x="620" y="1180" as="sourcePoint"/>
                        <mxPoint x="453" y="1179.1399999999999" as="targetPoint"/>
                        <mxPoint as="offset"/>
                    </mxGeometry>
                </mxCell>
                <mxCell id="62" value="" style="html=1;points=[];perimeter=orthogonalPerimeter;outlineConnect=0;targetShapes=umlLifeline;portConstraint=eastwest;newEdgeStyle={&quot;edgeStyle&quot;:&quot;elbowEdgeStyle&quot;,&quot;elbow&quot;:&quot;vertical&quot;,&quot;curved&quot;:0,&quot;rounded&quot;:0};" vertex="1" parent="1">
                    <mxGeometry x="442" y="1164" width="10" height="30" as="geometry"/>
                </mxCell>
            </root>
        </mxGraphModel>
    </diagram>
</mxfile>